<svg width="48" height="48" viewBox="0 0 48 48" fill="none" xmlns="http://www.w3.org/2000/svg">
<rect x="0.5" y="0.5" width="47" height="47" rx="11.5" fill="white" stroke="#004DFF"/>
<path d="M30.7143 36.0938H19.8393C17.8326 36.0938 16.2143 34.526 16.2143 32.582V14.0201H11.5536C10.6473 14.0201 10 14.7099 10 15.5251V38.6021C10 39.4801 10.6473 40.1071 11.5536 40.1071H29.1607C30.0022 40.1071 30.7143 39.4801 30.7143 38.6021V36.0938ZM30.7143 14.5218V8H19.8393C18.933 8 18.2857 8.6898 18.2857 9.50502V32.582C18.2857 33.46 18.933 34.0871 19.8393 34.0871H37.4464C38.2879 34.0871 39 33.46 39 32.582V16.0268H32.2679C31.3616 16.0268 30.7143 15.3997 30.7143 14.5218ZM38.4821 12.5778L34.2746 8.50167C33.9509 8.18813 33.5625 8 33.1741 8H32.7857V14.0201H39V13.6438C39 13.2676 38.8058 12.8913 38.4821 12.5778Z" fill="#004DFF"/>
</svg>
